<svg width="15" height="18" viewBox="0 0 15 18" fill="none" xmlns="http://www.w3.org/2000/svg">
<path d="M8.95833 0.625V3.95833C8.95833 4.40036 9.13393 4.82428 9.44649 5.13684C9.75905 5.44941 10.183 5.625 10.625 5.625H13.9583M9.79167 0.625H2.29167C1.84964 0.625 1.42572 0.800595 1.11316 1.11316C0.800595 1.42572 0.625 1.84964 0.625 2.29167V15.625C0.625 16.067 0.800595 16.491 1.11316 16.8035C1.42572 17.1161 1.84964 17.2917 2.29167 17.2917H12.2917C12.7337 17.2917 13.1576 17.1161 13.4702 16.8035C13.7827 16.491 13.9583 16.067 13.9583 15.625V4.79167L9.79167 0.625Z" stroke="#101010" stroke-width="1.25" stroke-linecap="round" stroke-linejoin="round"/>
</svg>
