<svg width="40" height="22" viewBox="0 0 40 22" fill="none" xmlns="http://www.w3.org/2000/svg">
<path d="M22.337 8.9945H23.4139C23.8525 8.9945 24.212 9.35949 24.212 9.80487V16.2244H27.4426V8.9543C27.4426 7.13092 25.9865 5.67423 24.212 5.67423H19.1063V11.4256C19.1063 12.4186 18.2884 13.2273 17.2907 13.2072C16.3325 13.167 15.5756 12.3566 15.5756 11.3838V5.65247H12.3037V11.4039C12.3037 14.2185 14.5581 16.4872 17.3302 16.4872C20.1024 16.4872 22.337 14.1984 22.337 11.4039V8.9945Z" fill="#00C8DC"/>
<path d="M25.8879 4.37343C27.0774 4.37343 28.0416 3.3944 28.0416 2.18672C28.0416 0.979022 27.0774 0 25.8879 0C24.6985 0 23.7342 0.979022 23.7342 2.18672C23.7342 3.3944 24.6985 4.37343 25.8879 4.37343Z" fill="#00C8DC"/>
<path d="M32.3516 16.241V10.4695C32.3516 9.47664 33.1497 8.68799 34.1062 8.68799C35.0626 8.68799 35.8608 9.49836 35.8608 10.4695V16.241H39.1325V10.4695C39.1325 7.65492 36.8783 5.38617 34.1062 5.38617C31.3341 5.38617 29.0996 7.67505 29.0996 10.4695V16.241H32.3499H32.3516Z" fill="#00C8DC"/>
<path d="M5.49469 5.3681C2.4802 5.3681 0 7.88637 0 10.947C0 14.0078 2.46041 16.5261 5.49469 16.5261C6.29449 16.5261 7.09759 16.2715 7.73907 15.9049V21.1423H10.9894V10.947C10.9894 7.88637 8.50917 5.3681 5.49469 5.3681ZM5.49469 13.3665C4.17873 13.3665 3.11014 12.2832 3.11014 10.9454C3.11014 9.60758 4.17708 8.52425 5.49469 8.52425C6.81226 8.52425 7.87923 9.60758 7.87923 10.9454C7.87923 12.2832 6.81226 13.3665 5.49469 13.3665Z" fill="#00C8DC"/>
</svg>
